<?xml version="1.0" encoding="utf-8"?>
<!-- Generator: Adobe Illustrator 16.0.0, SVG Export Plug-In . SVG Version: 6.00 Build 0)  -->
<!DOCTYPE svg PUBLIC "-//W3C//DTD SVG 1.1//EN" "http://www.w3.org/Graphics/SVG/1.1/DTD/svg11.dtd">
<svg version="1.1" id="Layer_1" xmlns="http://www.w3.org/2000/svg" xmlns:xlink="http://www.w3.org/1999/xlink" x="0px" y="0px"
	 width="864px" height="864px" viewBox="0 0 864 864" enable-background="new 0 0 864 864" xml:space="preserve">
<path fill-rule="evenodd" clip-rule="evenodd" fill="#EC008C" d="M403.629,788.327c-42.886-57.289-93.896-106.863-146.976-154.482
	c-39.487-35.425-79.412-70.402-117.901-106.888c-33.761-32.005-63.322-67.729-84.947-109.403
	c-18.495-35.643-29.674-73.37-32.915-113.428c-0.181-2.233-0.904-4.422-1.375-6.632c0-13.795,0-27.591,0-41.386
	c0.374-1.304,0.958-2.587,1.089-3.916c3.596-36.484,15.197-70.249,35.413-100.786c31.09-46.963,73.742-78.617,128.114-93.743
	c13.823-3.846,28.196-5.712,42.316-8.488c12.416,0,24.832,0,37.248,0c3.792,0.638,7.577,1.326,11.378,1.906
	c60.393,9.225,109.586,37.707,147.39,85.739c3.645,4.632,7.024,9.473,10.894,14.716c1.858-2.478,3.367-4.416,4.797-6.41
	c32.411-45.201,75.228-75.384,129.301-89.016c11.709-2.952,23.731-4.656,35.609-6.935c12.416,0,24.832,0,37.248,0
	c13.904,2.735,28.048,4.608,41.673,8.356c55.723,15.327,99.169,47.779,130.28,96.352c30.785,48.06,39.541,100.875,32.858,156.992
	c-7.979,67-38.547,123.164-81.959,173.303c-34.088,39.369-72.87,73.922-111.725,108.38
	c-49.348,43.765-99.153,87.161-142.017,137.482c-23.18,27.215-43.813,56.6-65.558,85.034c-0.506,0.661-10.228,11.682-10.493,12.526
	C433.373,827.601,410.712,797.79,403.629,788.327z M433.171,222.352c-5.804-11.659-11.013-22.441-16.499-33.082
	c-12.534-24.313-28.768-45.674-50.171-62.98C325.44,93.091,278.926,78.5,226.089,83.37c-23.801,2.194-46.237,8.474-67.355,19.1
	c-26.737,13.453-49.297,32.179-67.465,56.2c-23.486,31.051-36.181,66.147-38.367,104.701c-0.923,16.289,1.001,32.808,2.465,49.148
	c2.755,30.756,11.805,59.978,26.497,86.892c10.681,19.568,23.207,38.403,36.98,55.938c15.04,19.149,32.103,36.771,48.982,54.388
	c10.727,11.195,22.667,21.236,34.171,31.674c13.515,12.263,27.105,24.442,40.737,36.574c24.178,21.518,48.956,42.396,72.459,64.624
	c21.08,19.937,41.299,40.854,60.951,62.211c19.78,21.496,38.395,44.063,57.881,66.578c0.151-0.216,0.829-1.157,1.486-2.111
	c22.272-32.304,48.028-61.794,75.201-89.905c24.836-25.694,51.218-49.898,77.075-74.596c8.405-8.028,17.284-15.563,25.982-23.283
	c19.94-17.701,40.244-35.011,59.75-53.178c16.059-14.957,31.232-30.868,46.702-46.45c22.67-22.832,42.37-47.917,58.407-75.91
	c28.893-50.429,41.211-104.087,32.855-162.037c-5.751-39.889-23.521-73.869-51.032-102.809
	c-18.166-19.112-39.671-33.603-64.065-43.971c-20.444-8.689-41.76-13.482-63.707-14.72c-30.094-1.697-59.045,3.737-86.872,15.853
	c-37.712,16.42-66.94,42.3-87.901,77.395C449.108,190.408,441.77,206.014,433.171,222.352z"/>
</svg>
